<svg width="16" height="16" viewBox="0 0 16 16" fill="none" xmlns="http://www.w3.org/2000/svg">
<path fill-rule="evenodd" clip-rule="evenodd" d="M3.31058 3.35578C4.64695 3.22082 5.98348 3.15332 7.3201 3.15332C9.56368 3.15332 11.8135 3.26751 14.0494 3.48909C14.3242 3.51632 14.5249 3.76117 14.4977 4.03596C14.4704 4.31076 14.2256 4.51145 13.9508 4.48422C11.7467 4.26579 9.52985 4.15332 7.3201 4.15332C6.01696 4.15332 4.71374 4.21913 3.41035 4.35079L3.40888 4.35093L2.04888 4.48427C1.77406 4.51121 1.52943 4.31026 1.50248 4.03544C1.47554 3.76061 1.67649 3.51598 1.95131 3.48904L3.31058 3.35578Z" fill="black"/>
<path fill-rule="evenodd" clip-rule="evenodd" d="M6.30649 2.52308L6.15986 3.39618C6.11413 3.66851 5.85628 3.8522 5.58396 3.80647C5.31163 3.76073 5.12794 3.50289 5.17367 3.23056L5.32034 2.35723C5.3229 2.34202 5.32554 2.32609 5.32821 2.30996C5.37411 2.0327 5.44146 1.62596 5.71259 1.3185C6.02863 0.960119 6.51083 0.833374 7.12677 0.833374H8.87343C9.49686 0.833374 9.97858 0.970307 10.2927 1.33234C10.5642 1.64521 10.6299 2.05341 10.6737 2.32598C10.6759 2.33924 10.678 2.35218 10.68 2.36478L10.8264 3.22994C10.8725 3.50222 10.6891 3.76029 10.4169 3.80636C10.1446 3.85244 9.88652 3.66907 9.84044 3.3968L9.69327 2.52717C9.63751 2.18515 9.60223 2.06239 9.53746 1.98774C9.50162 1.94644 9.37667 1.83337 8.87343 1.83337H7.12677C6.61603 1.83337 6.4949 1.9433 6.46261 1.97991C6.4012 2.04955 6.36654 2.16655 6.30649 2.52308Z" fill="black"/>
<path fill-rule="evenodd" clip-rule="evenodd" d="M12.599 5.59444C12.8745 5.61223 13.0835 5.85004 13.0657 6.12561L12.6322 12.8417L12.6313 12.8543C12.6138 13.1052 12.5944 13.381 12.5428 13.6376C12.4892 13.9038 12.3947 14.1846 12.2033 14.4338C11.8025 14.9556 11.1205 15.1667 10.1401 15.1667H5.8601C4.87972 15.1667 4.19768 14.9556 3.7969 14.4338C3.60549 14.1846 3.51103 13.9038 3.45744 13.6376C3.40575 13.381 3.38644 13.1052 3.36887 12.8543L3.36779 12.8389L2.93447 6.12561C2.91668 5.85004 3.12565 5.61223 3.40122 5.59444C3.67679 5.57665 3.9146 5.78563 3.93239 6.06119L4.36554 12.7718C4.36557 12.7722 4.3656 12.7727 4.36563 12.7732C4.38445 13.0417 4.40037 13.2546 4.43775 13.4402C4.47416 13.621 4.5247 13.7397 4.58996 13.8247C4.70251 13.9712 4.98047 14.1667 5.8601 14.1667H10.1401C11.0197 14.1667 11.2977 13.9712 11.4102 13.8247C11.4755 13.7397 11.526 13.621 11.5624 13.4402C11.5998 13.2546 11.6157 13.0417 11.6346 12.7732C11.6346 12.7727 11.6346 12.7722 11.6347 12.7718L12.0678 6.06119C12.0856 5.78563 12.3234 5.57665 12.599 5.59444Z" fill="black"/>
<path fill-rule="evenodd" clip-rule="evenodd" d="M6.38676 11C6.38676 10.7239 6.61062 10.5 6.88676 10.5H9.10676C9.38291 10.5 9.60676 10.7239 9.60676 11C9.60676 11.2761 9.38291 11.5 9.10676 11.5H6.88676C6.61062 11.5 6.38676 11.2761 6.38676 11Z" fill="black"/>
<path fill-rule="evenodd" clip-rule="evenodd" d="M5.83344 8.33337C5.83344 8.05723 6.05729 7.83337 6.33344 7.83337H9.66677C9.94291 7.83337 10.1668 8.05723 10.1668 8.33337C10.1668 8.60952 9.94291 8.83337 9.66677 8.83337H6.33344C6.05729 8.83337 5.83344 8.60952 5.83344 8.33337Z" fill="black"/>
</svg>
