<svg width="16" height="16" viewBox="0 0 16 16" fill="none" xmlns="http://www.w3.org/2000/svg">
<path fill-rule="evenodd" clip-rule="evenodd" d="M10.345 0.958233C11.1228 0.858769 11.9098 1.17685 12.7094 1.92921L12.7103 1.93008C13.5126 2.68881 13.8778 3.45847 13.823 4.24239C13.7701 4.99989 13.3309 5.64103 12.8302 6.17007M12.8302 6.17007L7.35959 11.9605C7.20536 12.1285 6.9977 12.2707 6.80084 12.376C6.60144 12.4826 6.3708 12.5738 6.15427 12.6123L6.15094 12.6129L4.00504 12.9794C3.48467 13.0691 2.98567 12.9391 2.6302 12.602C2.27523 12.2654 2.11837 11.7745 2.17648 11.2515L2.17665 11.25L2.42439 9.0806C2.45316 8.8648 2.5333 8.63128 2.62778 8.4287C2.72191 8.22685 2.85034 8.01282 3.00233 7.85102L3.00331 7.84999L8.47664 2.05665C8.97766 1.5274 9.59336 1.05435 10.345 0.958233M9.20319 2.74377C9.20311 2.74385 9.20328 2.74368 9.20319 2.74377L3.73118 8.5357C3.73107 8.53582 3.73129 8.53558 3.73118 8.5357C3.67653 8.59401 3.60146 8.70684 3.53407 8.85135C3.4679 8.99325 3.42815 9.12453 3.41623 9.20891L3.17036 11.3619C3.17034 11.3621 3.17031 11.3624 3.17029 11.3626C3.14195 11.6192 3.2217 11.7848 3.31831 11.8764C3.41451 11.9676 3.58218 12.0376 3.83514 11.994L3.8359 11.9938L5.98064 11.6275C6.06416 11.6124 6.19284 11.5671 6.32934 11.4941C6.46773 11.4201 6.57183 11.3403 6.62394 11.2831L6.62992 11.2766L12.1033 5.48332C12.5491 5.01243 12.7968 4.58332 12.8255 4.17266C12.8523 3.78835 12.6943 3.29152 12.0237 2.65716C11.3569 2.02983 10.8539 1.9013 10.4718 1.95016C10.0636 2.00236 9.64874 2.27318 9.20319 2.74377Z" fill="black"/>
<path fill-rule="evenodd" clip-rule="evenodd" d="M7.84978 2.87267C8.12263 2.83016 8.37828 3.01689 8.42079 3.28974C8.67221 4.90349 9.98189 6.13856 11.6102 6.30256C11.8849 6.33023 12.0852 6.5754 12.0576 6.85015C12.0299 7.1249 11.7847 7.3252 11.51 7.29753C9.43161 7.08819 7.75463 5.50993 7.43271 3.44368C7.3902 3.17083 7.57693 2.91518 7.84978 2.87267Z" fill="black"/>
<path fill-rule="evenodd" clip-rule="evenodd" d="M1.50009 14.6667C1.50009 14.3905 1.72395 14.1667 2.00009 14.1667H14.0001C14.2762 14.1667 14.5001 14.3905 14.5001 14.6667C14.5001 14.9428 14.2762 15.1667 14.0001 15.1667H2.00009C1.72395 15.1667 1.50009 14.9428 1.50009 14.6667Z" fill="black"/>
</svg>
