<?xml version="1.0" encoding="UTF-8"?><svg id="a" xmlns="http://www.w3.org/2000/svg" viewBox="0 0 216.71 202.61"><path d="M85.72,.2c4.37-.94,9.24,1.6,11.98,6.42,3.26,6.18,5.26,9.18,5.26,9.18l12.03-.54s27.53-2.3,41.31-3.28c9.09-.65,14.15,3.85,14.71,12.9,.14,2.33,.5,6.96,.5,6.96l.45,9.96,10.32,3.1s16.21,4.97,24.27,7.59c8.94,2.91,11.93,8.43,9.16,17.21-12.95,41.07-25.94,82.13-38.96,123.18-2.68,8.43-8.58,11.48-17.06,8.81-20.62-6.49-41.22-13.03-61.8-19.64-1.63-.52-4.93-1.25-4.93-1.25,0,0-2.13,1.02-3.49,1.79-5.97,3.39-11.92,1.26-16.16-5.25-13.17-20.22-26.27-40.49-39.41-60.74-10.24-15.78-20.5-31.54-30.72-47.34-5.29-8.18-4.05-14.16,4.05-19.43C31.1,34.3,54.97,18.79,78.89,3.38c2.45-1.58,4.07-2.59,6.82-3.18Zm122.24,63.6c0-1-3.31-1.89-5.08-2.46-26.61-8.55-53.28-16.89-79.88-25.47-3.95-1.28-5.63-.44-6.87,3.51-12.63,40.32-25.36,80.62-38.21,120.87-1.28,4.01-.38,5.51,3.59,6.74,26.54,8.22,53.02,16.61,79.47,25.14,4.03,1.3,5.83,.8,7.19-3.58,9.45-30.51,19.19-60.93,28.83-91.38,3.32-10.47,10.96-32.36,10.96-33.36ZM57.55,28.8c-1.44,.82-2.44,1.32-3.37,1.92-13.69,8.86-27.29,17.85-41.09,26.52-3.65,2.3-3.73,4.18-1.52,7.56,17.3,26.45,34.45,53,51.67,79.5,.62,.95,1.19,1.67,2.73,3.5-2.94-40.33-5.51-79.22-8.41-118.99Zm104.72,9.59c-.22-4.44-.31-7.6-.52-11.37-.23-4.17-1.51-5.76-6.02-5.4-28.05,2.21-56.12,4.2-84.2,6.12-3.57,.24-4.5,1.69-4.24,5.06,2.04,26.9,3.94,53.81,5.92,80.71,.54,7.3,1.75,23.29,1.75,23.29,0,0,1.66-3.82,2.06-5.06,9.95-31.39,19.9-62.77,29.83-94.16,3.62-11.43,8.49-14.01,19.81-10.43,11.55,3.65,23.1,7.3,35.62,11.25ZM75.64,16.84l-1.67,.95s12.8-.72,18.29-1.17c-3.51-7.99-3.88-8.11-10.57-3.77-2.02,1.31-6.04,3.99-6.04,3.99Z"/></svg>